#!OML:ASF E:\Style4\Style4.ASF
:FULLY-SPECIFIED
:DEGREES
3372
root -0.145265 17.4495 -2.12641 3.07473 0.346236 2.57493
lowerback 12.5888 3.72102 -2.00002
upperback 6.32479 4.68717 0.0687132
thorax -0.574773 2.29791 0.587664
lowerneck 0.116795 2.25903 -2.52375
upperneck 9.9367 2.9006 2.4442
head 3.08443 1.43274 1.30375
rclavicle 1.35174e-014 -1.19271e-015
rhumerus 20.6126 -3.97934 -65.7645
rradius 42.6284
rwrist 15.3202
rhand -17.4127 12.2746
rfingers 7.12502
rthumb 8.83715 -17.5204
lclavicle 1.35174e-014 -1.19271e-015
lhumerus 39.9119 -13.6899 38.2235
lradius 91.7917
lwrist -9.61741
lhand -20.782 27.0777
lfingers 7.12502
lthumb 5.58481 56.9841
rfemur -25.8362 -4.00833 16.9669
rtibia 42.194
rfoot -18.6504 -13.7398
rtoes -10.3796
lfemur -24.9198 -1.06305 -20.3674
ltibia 41.0083
lfoot -18.1563 5.91722
ltoes -16.9277
3373
root -0.176984 17.4497 -2.14137 3.26456 0.623042 2.60362
lowerback 12.6182 3.69286 -2.01272
upperback 6.30873 4.64688 -0.00713307
thorax -0.600917 2.27909 0.519228
lowerneck 0.130819 2.44473 -2.4799
upperneck 9.79044 3.14403 2.49518
head 3.02478 1.55674 1.31516
rclavicle 1.17283e-014 3.18055e-015
rhumerus 20.3781 -3.96044 -65.8626
rradius 42.7326
rwrist 15.2703
rhand -17.3746 12.3871
rfingers 7.12502
rthumb 8.87385 -17.4063
lclavicle 1.17283e-014 3.18055e-015
lhumerus 39.974 -13.2691 38.9195
lradius 91.258
lwrist -9.65356
lhand -20.5029 27.537
lfingers 7.12502
lthumb 5.85427 57.4361
rfemur -26.0735 -4.13923 17.0518
rtibia 42.2042
rfoot -18.6747 -13.7077
rtoes -9.26505
lfemur -25.1897 -1.15509 -20.2854
ltibia 40.9408
lfoot -17.8724 5.81929
ltoes -17.4844
3374
root -0.211529 17.4516 -2.15642 3.3869 0.885872 2.63355
lowerback 12.7146 3.69303 -2.04558
upperback 6.31255 4.63997 -0.0741449
thorax -0.645176 2.27633 0.463071
lowerneck 0.143657 2.60796 -2.36657
upperneck 9.68562 3.36203 2.46539
head 2.98246 1.66786 1.28821
rclavicle -1.96797e-014 -5.56597e-015
rhumerus 20.1631 -3.96676 -65.9253
rradius 42.8253
rwrist 15.2417
rhand -17.3139 12.4057
rfingers 7.12502
rthumb 8.93245 -17.3852
lclavicle -1.96797e-014 -5.56597e-015
lhumerus 40.0273 -12.9068 39.8417
lradius 90.4797
lwrist -9.68515
lhand -20.4954 27.8343
lfingers 7.12502
lthumb 5.86153 57.7332
rfemur -26.2186 -4.15924 17.1378
rtibia 42.2176
rfoot -18.7165 -13.8069
rtoes -8.76284
lfemur -25.4152 -1.20602 -20.1975
ltibia 40.9052
lfoot -17.5765 5.69951
ltoes -17.626
3375
root -0.247547 17.4563 -2.16617 3.40892 1.09006 2.68824
lowerback 12.8579 3.73644 -2.07364
upperback 6.36411 4.68913 -0.159097
thorax -0.663797 2.30149 0.376996
lowerneck 0.121029 2.7366 -2.27797
upperneck 9.61039 3.53241 2.46891
head 2.95763 1.75571 1.27667
rclavicle 1.27222e-014 1.98785e-015
rhumerus 19.8928 -4.07271 -66.0408
rradius 42.958
rwrist 15.205
rhand -17.3539 12.4156
rfingers 7.12502
rthumb 8.89383 -17.3769
lclavicle 1.27222e-014 1.98785e-015
lhumerus 40.067 -12.5931 40.925
lradius 89.4055
lwrist -9.83985
lhand -21.0334 27.7786
lfingers 7.12502
lthumb 5.34206 57.6912
rfemur -26.2007 -4.1133 17.2
rtibia 42.209
rfoot -18.8164 -13.952
rtoes -8.22745
lfemur -25.5147 -1.17718 -20.1404
ltibia 40.9097
lfoot -17.3718 5.54847
ltoes -17.6326
3376
root -0.282293 17.4611 -2.17535 3.4784 1.29299 2.65891
lowerback 12.944 3.77879 -1.99868
upperback 6.41561 4.75064 -0.219841
thorax -0.646158 2.33444 0.260806
lowerneck 0.103693 2.84865 -2.23315
upperneck 9.49012 3.68204 2.47287
head 2.91657 1.83184 1.27135
rclavicle 1.27222e-014 1.23246e-014
rhumerus 19.6806 -4.26238 -66.1537
rradius 43.0647
rwrist 15.2531
rhand -17.4239 12.4482
rfingers 7.12502
rthumb 8.82629 -17.3472
lclavicle 1.27222e-014 1.23246e-014
lhumerus 40.1611 -12.3136 41.8739
lradius 88.436
lwrist -10.0581
lhand -21.9436 27.6735
lfingers 7.12502
lthumb 4.46318 57.6065
rfemur -26.2512 -4.10434 17.3626
rtibia 42.1869
rfoot -18.8847 -14.0669
rtoes -8.02154
lfemur -25.707 -1.16299 -19.989
ltibia 40.9563
lfoot -17.1182 5.45418
ltoes -17.7373
3377
root -0.317758 17.4623 -2.18865 3.58522 1.55369 2.6135
lowerback 12.9987 3.77419 -1.98293
upperback 6.46545 4.74542 -0.246492
thorax -0.619409 2.33242 0.223737
lowerneck 0.053873 2.9941 -2.16046
upperneck 9.38478 3.88204 2.3982
head 2.88726 1.93133 1.23782
rclavicle 5.08889e-014 -1.03368e-014
rhumerus 19.621 -4.39294 -66.2531
rradius 43.1082
rwrist 15.3775
rhand -17.4919 12.5065
rfingers 7.12502
rthumb 8.7607 -17.2916
lclavicle 5.08889e-014 -1.03368e-014
lhumerus 40.2745 -11.97 42.6954
lradius 87.6043
lwrist -10.1547
lhand -22.3284 27.4499
lfingers 7.12502
lthumb 4.0916 57.3903
rfemur -26.3746 -4.13385 17.555
rtibia 42.1755
rfoot -18.8562 -14.2608
rtoes -7.9063
lfemur -25.9813 -1.14471 -19.8044
ltibia 41.0319
lfoot -16.8835 5.27588
ltoes -17.7998
3378
root -0.351603 17.4626 -2.20092 3.72722 1.80749 2.64977
lowerback 13.0213 3.77682 -2.02272
upperback 6.50921 4.74375 -0.307812
thorax -0.583289 2.33156 0.183043
lowerneck -0.0253074 3.14691 -2.07195
upperneck 9.26728 4.09138 2.32973
head 2.85961 2.03629 1.20432
rclavicle -4.53229e-014 1.23246e-014
rhumerus 19.5742 -4.50884 -66.3243
rradius 43.1601
rwrist 15.4667
rhand -17.4568 12.4748
rfingers 7.12502
rthumb 8.79455 -17.322
lclavicle -4.53229e-014 1.23246e-014
lhumerus 40.3935 -11.6272 43.5158
lradius 86.8375
lwrist -10.037
lhand -22.1191 27.2664
lfingers 7.12502
lthumb 4.29371 57.2029
rfemur -26.5419 -4.21387 17.656
rtibia 42.1685
rfoot -18.735 -14.4881
rtoes -8.11286
lfemur -26.3032 -1.08124 -19.7322
ltibia 41.1468
lfoot -16.6447 5.13586
ltoes -18.7964
3379
root -0.381883 17.4639 -2.21033 3.84116 2.03915 2.67313
lowerback 13.0778 3.7595 -1.994
upperback 6.54098 4.72202 -0.388619
thorax -0.570523 2.32264 0.0842366
lowerneck -0.0983754 3.28356 -2.01122
upperneck 9.14959 4.27608 2.30627
head 2.83035 2.1295 1.18953
rclavicle -4.17448e-014 5.96354e-015
rhumerus 19.5174 -4.61558 -66.4892
rradius 43.1708
rwrist 15.5666
rhand -17.4523 12.4924
rfingers 7.12502
rthumb 8.79886 -17.3042
lclavicle -4.17448e-014 5.96354e-015
lhumerus 40.4102 -11.3046 44.2682
lradius 86.173
lwrist -9.90311
lhand -21.8989 27.5005
lfingers 7.12502
lthumb 4.50642 57.4325
rfemur -26.6788 -4.3315 17.739
rtibia 42.1804
rfoot -18.766 -14.5464
rtoes -7.69692
lfemur -26.5951 -0.986598 -19.6778
ltibia 41.2781
lfoot -16.3337 5.00352
ltoes -19.765
3380
root -0.414795 17.4638 -2.2222 3.86133 2.25018 2.58663
lowerback 13.2577 3.75947 -1.88949
upperback 6.58169 4.7287 -0.42827
thorax -0.61241 2.32899 -0.0259068
lowerneck -0.137927 3.39053 -1.93106
upperneck 8.99837 4.42003 2.28409
head 2.78515 2.20314 1.16942
rclavicle -8.34896e-015 -1.47101e-014
rhumerus 19.4222 -4.68421 -66.5862
rradius 43.2377
rwrist 15.5119
rhand -17.4028 12.545
rfingers 7.12502
rthumb 8.84661 -17.2496
lclavicle -8.34896e-015 -1.47101e-014
lhumerus 40.4485 -10.9985 44.953
lradius 85.481
lwrist -9.8764
lhand -21.8907 27.858
lfingers 7.12502
lthumb 4.51432 57.7899
rfemur -26.7453 -4.35827 17.9437
rtibia 42.2207
rfoot -18.8803 -14.5944
rtoes -7.21134
lfemur -26.7996 -0.875439 -19.494
ltibia 41.4028
lfoot -16.0745 4.80249
ltoes -19.7448
3381
root -0.445172 17.4632 -2.23096 3.91905 2.47322 2.60586
lowerback 13.2796 3.74215 -1.91965
upperback 6.67012 4.7033 -0.452008
thorax -0.531081 2.31569 -0.0279153
lowerneck -0.167535 3.52514 -1.91275
upperneck 8.82819 4.60503 2.2271
head 2.73052 2.294 1.14885
rclavicle 5.56597e-015 -1.19271e-015
rhumerus 19.4774 -4.68881 -66.6546
rradius 43.2399
rwrist 15.4561
rhand -17.4068 12.4924
rfingers 7.12502
rthumb 8.84283 -17.3023
lclavicle 5.56597e-015 -1.19271e-015
lhumerus 40.4237 -10.6096 45.672
lradius 84.7577
lwrist -10.0497
lhand -21.9542 28.0039
lfingers 7.12502
lthumb 4.45301 57.9371
rfemur -26.8386 -4.45673 18.0334
rtibia 42.2919
rfoot -18.9471 -14.6247
rtoes -7.233
lfemur -27.0166 -0.85034 -19.4289
ltibia 41.5199
lfoot -15.9081 4.60972
ltoes -19.1389
3382
root -0.472983 17.4614 -2.2371 4.02477 2.74236 2.84992
lowerback 13.221 3.70796 -2.16601
upperback 6.75883 4.63309 -0.527608
thorax -0.417561 2.27588 0.0477671
lowerneck -0.212676 3.65485 -1.98347
upperneck 8.69404 4.78007 2.24935
head 2.68759 2.37956 1.16981
rclavicle 8.74653e-015 -4.37326e-015
rhumerus 19.5219 -4.63501 -66.6728
rradius 43.2675
rwrist 15.4484
rhand -17.4592 12.4115
rfingers 7.12502
rthumb 8.79219 -17.3854
lclavicle 8.74653e-015 -4.37326e-015
lhumerus 40.3899 -10.3387 46.4258
lradius 83.9131
lwrist -10.448
lhand -22.0215 28.1811
lfingers 7.12502
lthumb 4.38799 58.1157
rfemur -26.9738 -4.69002 17.8624
rtibia 42.4053
rfoot -19.0005 -14.6167
rtoes -7.17686
lfemur -27.2554 -0.871205 -19.6309
ltibia 41.6288
lfoot -15.7324 4.37309
ltoes -17.894
3383
root -0.505505 17.4582 -2.24595 4.10288 2.9773 2.95666
lowerback 13.2889 3.69457 -2.29369
upperback 6.809 4.59897 -0.596316
thorax -0.404035 2.25702 0.0497957
lowerneck -0.292299 3.75003 -2.00197
upperneck 8.59282 4.90589 2.30126
head 2.6636 2.44338 1.19202
rclavicle 2.22639e-014 -8.34896e-015
rhumerus 19.5137 -4.60014 -66.7141
rradius 43.2928
rwrist 15.3725
rhand -17.4893 12.3809
rfingers 7.12502
rthumb 8.7632 -17.4172
lclavicle 2.22639e-014 -8.34896e-015
lhumerus 40.4099 -10.1504 47.1248
lradius 83.0807
lwrist -10.7863
lhand -21.819 28.4987
lfingers 7.12502
lthumb 4.58354 58.4291
rfemur -27.12 -4.85407 17.8735
rtibia 42.533
rfoot -19.0028 -14.721
rtoes -7.12425
lfemur -27.4996 -0.797328 -19.6766
ltibia 41.7509
lfoot -15.6227 4.07309
ltoes -16.391
3384
root -0.539233 17.4529 -2.25717 4.0808 3.09893 3.01835
lowerback 13.543 3.74737 -2.31834
upperback 6.84395 4.65542 -0.702121
thorax -0.496193 2.28682 -0.0692016
lowerneck -0.314595 3.8064 -1.96317
upperneck 8.46828 4.97632 2.371
head 2.62347 2.48196 1.20691
rclavicle -1.66979e-014 1.47101e-014
rhumerus 19.4476 -4.75441 -66.8428
rradius 43.2867
rwrist 15.3358
rhand -17.5128 12.4623
rfingers 7.12502
rthumb 8.74047 -17.3367
lclavicle -1.66979e-014 1.47101e-014
lhumerus 40.5541 -10.0244 47.7382
lradius 82.2587
lwrist -10.8695
lhand -21.6239 28.6445
lfingers 7.12502
lthumb 4.77189 58.5708
rfemur -27.2016 -4.8576 17.9126
rtibia 42.6678
rfoot -19.0764 -14.7301
rtoes -6.56102
lfemur -27.6572 -0.614856 -19.6877
ltibia 41.8926
lfoot -15.4942 3.96097
ltoes -15.8561
